<?xml version="1.0" encoding="UTF-8" standalone="no"?>
<!DOCTYPE svg PUBLIC "-//W3C//DTD SVG 1.1//EN" "http://www.w3.org/Graphics/SVG/1.1/DTD/svg11.dtd">
<svg width="100%" height="100%" viewBox="0 0 24 24" version="1.1" xmlns="http://www.w3.org/2000/svg" xmlns:xlink="http://www.w3.org/1999/xlink" xml:space="preserve" xmlns:serif="http://www.serif.com/" style="fill-rule:evenodd;clip-rule:evenodd;stroke-linejoin:round;stroke-miterlimit:2;">
    <g transform="matrix(0.002221,0,0,-0.002221,-1.318595,25.328546)">
        <path d="M5610,10979C4505,10839 3576,10215 3041,9253C2907,9013 2766,8647 2715,8413L2708,8380L2849,8380L2860,8423C3000,8979 3292,9492 3705,9906C4085,10287 4521,10553 5040,10719C5200,10770 5474,10826 5658,10845L5720,10852L5720,10921C5720,11000 5730,10994 5610,10979Z" style="fill:white;fill-rule:nonzero;stroke:rgb(0,255,255);stroke-width:45.02px;"/>
    </g>
    <g transform="matrix(0.002221,0,0,-0.002221,-1.318595,25.328546)">
        <path d="M6270,10991L6270,10852L6338,10846C6760,10803 7227,10652 7600,10437C8344,10009 8881,9322 9114,8500L9147,8385L9289,8379L9259,8490C9142,8939 8928,9365 8633,9735C8529,9866 8238,10159 8122,10250C7707,10573 7305,10774 6831,10895C6699,10929 6457,10972 6333,10985L6270,10991Z" style="fill:white;fill-rule:nonzero;stroke:rgb(0,255,255);stroke-width:45.02px;"/>
    </g>
    <g transform="matrix(0.002221,0,0,-0.002221,-1.318595,25.328546)">
        <path d="M2804,10643C2450,10387 2054,10006 1774,9655C1235,8978 871,8196 700,7350C569,6697 559,6053 670,5384C694,5242 765,4912 773,4903C776,4901 2209,5846 2223,5859C2227,5864 2213,5913 2190,5970C2060,6295 1961,6696 1920,7055C1914,7110 1905,7250 1900,7365C1858,8376 2180,9381 2799,10170L2889,10285L2890,10493C2890,10607 2888,10700 2886,10700C2884,10700 2847,10674 2804,10643Z" style="fill:white;fill-rule:nonzero;stroke:rgb(0,255,255);stroke-width:45.02px;"/>
    </g>
    <g transform="matrix(0.002221,0,0,-0.002221,-1.318595,25.328546)">
        <path d="M9100,10496L9100,10291L9151,10230C9230,10135 9360,9953 9442,9823C9781,9288 9998,8669 10077,8010C10101,7803 10102,7284 10077,7073C10033,6687 9939,6305 9808,5975C9783,5913 9771,5870 9777,5862C9794,5835 11215,4902 11221,4914C11232,4934 11289,5180 11314,5322C11349,5511 11377,5726 11391,5918C11406,6131 11397,6675 11375,6859C11294,7546 11126,8115 10834,8700C10636,9094 10427,9413 10134,9765C10003,9923 9657,10270 9500,10401C9371,10509 9120,10700 9108,10700C9104,10700 9100,10608 9100,10496Z" style="fill:white;fill-rule:nonzero;stroke:rgb(0,255,255);stroke-width:45.02px;"/>
    </g>
    <g transform="matrix(0.002221,0,0,-0.002221,-1.318595,25.328546)">
        <path d="M5766,10550C5083,10488 4453,10191 3985,9709C3835,9554 3761,9462 3648,9290C3007,8316 3032,7059 3711,6105C3890,5854 4151,5598 4410,5421C4623,5275 4851,5163 5115,5075L5275,5021L5278,4898L5281,4776L5380,4566L5480,4357L5480,1100L6510,1100L6510,4343L6607,4544L6705,4745L6710,4883L6715,5022L6825,5055C7261,5188 7667,5434 7995,5765C8461,6235 8738,6830 8801,7494C8816,7654 8808,7995 8785,8140C8736,8460 8661,8698 8520,8985C8376,9279 8210,9512 7986,9735C7546,10173 7013,10438 6385,10531C6234,10554 5915,10563 5766,10550Z" style="fill:white;fill-rule:nonzero;stroke:rgb(0,255,255);stroke-width:45.02px;"/>
    </g>
    <g transform="matrix(0.002221,0,0,-0.002221,-1.318595,25.328546)">
        <path d="M2686,6983C2726,6805 2756,6690 2790,6586C3052,5782 3595,5116 4335,4692C4416,4646 4610,4548 4610,4554C4610,4556 4590,4600 4565,4652C4524,4740 4520,4754 4520,4826L4520,4905L4448,4945C4223,5072 4020,5229 3805,5445C3403,5847 3136,6316 2996,6862L2962,6995L2822,6998C2692,7000 2682,6999 2686,6983Z" style="fill:white;fill-rule:nonzero;stroke:rgb(0,255,255);stroke-width:45.02px;"/>
    </g>
    <g transform="matrix(0.002221,0,0,-0.002221,-1.318595,25.328546)">
        <path d="M9016,6923C8988,6800 8913,6566 8858,6435C8606,5826 8156,5308 7583,4965L7470,4898L7470,4817C7470,4744 7466,4726 7431,4648C7409,4599 7394,4560 7396,4560C7409,4560 7542,4625 7632,4676C8301,5051 8811,5620 9110,6325C9184,6500 9276,6799 9305,6963L9312,7000L9034,7000L9016,6923Z" style="fill:white;fill-rule:nonzero;stroke:rgb(0,255,255);stroke-width:45.02px;"/>
    </g>
    <g transform="matrix(0.002221,0,0,-0.002221,-1.318595,25.328546)">
        <path d="M1665,4989C1258,4719 919,4496 913,4492C903,4486 912,4455 944,4370C1311,3407 1933,2580 2755,1963C3314,1543 3958,1231 4620,1059C4705,1037 4783,1016 4793,1014C4809,1009 4810,1049 4810,1754L4810,2499L4755,2602C4709,2691 4698,2723 4676,2832C4663,2901 4643,2976 4633,2998C4610,3048 4539,3108 4210,3353C3780,3674 3652,3780 3598,3864C3550,3938 3442,4152 3409,4238C3390,4289 3374,4311 3330,4348C3235,4428 3032,4630 2936,4740C2764,4936 2586,5183 2470,5388C2441,5438 2415,5480 2411,5479C2408,5479 2072,5258 1665,4989Z" style="fill:white;fill-rule:nonzero;stroke:rgb(0,255,255);stroke-width:45.02px;"/>
    </g>
    <g transform="matrix(0.002221,0,0,-0.002221,-1.318595,25.328546)">
        <path d="M9567,5458C9559,5445 9533,5401 9510,5360C9333,5049 9017,4662 8737,4412C8628,4314 8610,4294 8590,4243C8555,4155 8434,3918 8390,3853C8342,3781 8203,3665 7818,3378C7443,3098 7387,3050 7362,2992C7351,2966 7332,2893 7320,2830C7301,2734 7288,2696 7239,2598L7180,2480L7180,1010L7208,1016C7726,1131 8326,1375 8799,1662C9718,2219 10476,3066 10911,4020C10974,4159 11103,4480 11098,4485C11094,4489 9608,5465 9593,5474C9586,5478 9575,5471 9567,5458Z" style="fill:white;fill-rule:nonzero;stroke:rgb(0,255,255);stroke-width:45.02px;"/>
    </g>
</svg>
